<svg id="svg" version="1.1" xmlns="http://www.w3.org/2000/svg" xmlns:xlink="http://www.w3.org/1999/xlink" width="400" height="126.68112798264642" viewBox="0, 0, 400,126.68112798264642"><g id="svgg"><path id="path0" d="M29.774 43.316 C 28.630 44.070,28.669 43.750,28.668 52.308 C 28.666 62.806,27.519 61.668,38.094 61.664 C 46.630 61.662,46.446 61.682,47.120 60.681 L 47.500 60.117 47.500 52.470 C 47.500 44.108,47.493 44.040,46.535 43.358 C 45.796 42.832,30.566 42.794,29.774 43.316 M67.954 43.356 C 66.923 44.124,66.929 44.083,66.863 51.691 C 66.789 60.123,66.917 60.993,68.299 61.519 C 69.277 61.891,84.182 61.699,84.754 61.307 C 85.862 60.548,85.833 60.787,85.833 52.260 L 85.833 44.547 85.153 43.773 L 84.472 43.000 76.444 43.005 C 68.588 43.010,68.407 43.018,67.954 43.356 M30.099 67.085 C 29.464 67.420,28.861 68.081,28.736 68.580 C 28.566 69.259,28.771 76.858,28.988 77.917 C 29.101 78.467,29.271 79.329,29.366 79.833 C 29.524 80.671,29.833 81.691,30.443 83.385 C 30.770 84.293,31.812 86.347,32.717 87.865 C 33.696 89.508,36.339 92.433,37.920 93.624 C 38.193 93.829,38.620 94.151,38.868 94.339 C 39.704 94.971,41.032 95.833,41.170 95.833 C 41.244 95.833,41.331 95.890,41.361 95.958 C 41.427 96.106,44.100 97.418,45.073 97.779 C 45.445 97.918,45.900 98.093,46.083 98.169 C 46.267 98.246,46.867 98.434,47.417 98.588 C 47.967 98.742,48.642 98.942,48.917 99.032 C 52.096 100.077,58.853 100.218,64.083 99.350 C 66.895 98.883,72.627 96.663,73.846 95.569 C 73.991 95.440,74.197 95.333,74.305 95.333 C 74.412 95.333,74.500 95.270,74.500 95.193 C 74.500 95.116,74.669 94.975,74.875 94.878 C 77.778 93.523,84.167 85.396,84.167 83.058 C 84.167 82.880,84.227 82.662,84.300 82.575 C 84.490 82.348,84.934 80.905,85.142 79.833 C 85.740 76.761,85.833 75.735,85.833 72.226 C 85.832 66.433,86.532 66.834,76.417 66.836 C 68.019 66.838,68.308 66.805,67.451 67.868 L 66.952 68.487 66.873 72.118 C 66.776 76.523,66.617 77.029,64.737 78.905 C 64.196 79.444,62.590 80.333,62.156 80.333 C 62.015 80.333,61.829 80.400,61.742 80.482 C 61.152 81.034,56.222 81.375,54.544 80.980 C 50.925 80.126,49.314 79.053,48.168 76.731 L 47.602 75.583 47.507 72.000 C 47.408 68.258,47.370 68.068,46.585 67.333 L 46.140 66.917 38.362 66.873 C 31.643 66.836,30.517 66.865,30.099 67.085 " stroke="none" fill="#fafbfb" fill-rule="evenodd"></path><path id="path1" d="M13.244 26.375 C 13.200 26.489,13.184 46.121,13.207 70.000 L 13.250 113.417 56.833 113.417 L 100.417 113.417 100.417 69.833 L 100.417 26.250 56.870 26.208 C 22.120 26.175,13.307 26.208,13.244 26.375 M67.833 41.833 C 67.833 41.925,67.679 42.000,67.490 42.000 C 67.301 42.000,67.193 41.925,67.250 41.833 C 67.307 41.742,67.461 41.667,67.593 41.667 C 67.725 41.667,67.833 41.742,67.833 41.833 M47.143 43.147 L 47.950 43.822 47.970 51.786 C 47.994 61.215,47.979 61.322,46.503 61.967 C 45.723 62.308,40.787 62.426,30.970 62.340 C 30.541 62.336,30.089 62.240,29.964 62.125 C 29.840 62.010,29.523 61.804,29.261 61.667 C 28.626 61.334,28.115 59.906,28.128 58.500 C 28.130 58.271,28.138 54.916,28.146 51.045 C 28.162 43.211,28.054 43.941,29.339 42.967 C 30.105 42.388,29.664 42.413,38.543 42.444 L 46.337 42.472 47.143 43.147 M85.117 42.723 C 85.190 42.846,85.391 43.023,85.564 43.117 C 86.305 43.521,86.667 52.875,86.188 59.266 C 85.954 62.390,86.197 62.310,76.833 62.340 C 68.362 62.368,68.393 62.369,68.134 62.110 C 68.011 61.987,67.687 61.812,67.414 61.721 C 66.984 61.578,66.879 61.413,66.624 60.486 C 66.206 58.965,66.191 45.294,66.607 44.345 C 67.469 42.375,66.614 42.533,76.533 42.515 C 83.427 42.503,85.008 42.541,85.117 42.723 M337.333 43.417 C 337.333 43.572,337.176 43.667,336.917 43.667 C 336.688 43.667,336.500 43.742,336.500 43.833 C 336.500 43.925,336.313 44.000,336.083 44.000 C 335.824 44.000,335.667 44.094,335.667 44.250 C 335.667 44.387,335.586 44.500,335.487 44.500 C 335.173 44.500,334.333 45.461,334.333 45.821 C 334.333 46.017,334.225 46.167,334.083 46.167 C 333.917 46.167,333.833 46.333,333.833 46.667 C 333.833 46.978,333.755 47.151,333.625 47.125 C 333.280 47.056,333.232 51.875,333.574 52.217 C 333.717 52.360,333.833 52.632,333.833 52.821 C 333.833 53.011,333.914 53.167,334.012 53.167 C 334.295 53.167,334.685 53.632,334.713 54.004 C 334.728 54.208,334.892 54.383,335.119 54.441 C 335.329 54.493,335.500 54.603,335.500 54.685 C 335.500 54.766,335.612 54.833,335.750 54.833 C 335.887 54.833,336.000 54.946,336.000 55.083 C 336.000 55.221,336.112 55.333,336.250 55.333 C 336.387 55.333,336.500 55.408,336.500 55.500 C 336.500 55.592,336.765 55.667,337.089 55.667 C 337.458 55.667,337.713 55.760,337.773 55.917 C 337.853 56.126,338.354 56.167,340.851 56.167 C 343.391 56.167,343.833 56.130,343.833 55.917 C 343.833 55.761,343.991 55.667,344.250 55.667 C 344.479 55.667,344.667 55.592,344.667 55.500 C 344.667 55.408,344.854 55.333,345.083 55.333 C 345.343 55.333,345.500 55.239,345.500 55.083 C 345.500 54.946,345.581 54.833,345.679 54.833 C 345.913 54.833,346.833 53.913,346.833 53.679 C 346.833 53.581,346.946 53.500,347.083 53.500 C 347.239 53.500,347.333 53.343,347.333 53.083 C 347.333 52.854,347.408 52.667,347.500 52.667 C 347.592 52.667,347.667 52.479,347.667 52.250 C 347.667 51.991,347.761 51.833,347.917 51.833 C 348.126 51.833,348.167 51.481,348.167 49.667 C 348.167 47.852,348.126 47.500,347.917 47.500 C 347.736 47.500,347.667 47.314,347.667 46.823 C 347.667 46.415,347.601 46.188,347.500 46.250 C 347.408 46.307,347.333 46.236,347.333 46.093 C 347.333 45.950,347.221 45.833,347.083 45.833 C 346.928 45.833,346.833 45.676,346.833 45.420 C 346.833 45.118,346.721 44.978,346.417 44.902 C 346.188 44.844,346.000 44.730,346.000 44.649 C 346.000 44.567,345.887 44.500,345.750 44.500 C 345.613 44.500,345.500 44.415,345.500 44.310 C 345.500 43.991,344.947 43.678,344.375 43.672 C 344.007 43.668,343.833 43.587,343.833 43.417 C 343.833 43.203,343.361 43.167,340.583 43.167 C 337.806 43.167,337.333 43.203,337.333 43.417 M111.667 74.000 L 111.667 102.167 118.000 102.167 L 124.333 102.167 124.333 83.500 C 124.333 65.925,124.385 63.737,124.765 65.250 C 124.822 65.479,124.936 65.667,125.018 65.667 C 125.100 65.667,125.167 65.779,125.167 65.917 C 125.167 66.054,125.279 66.167,125.417 66.167 C 125.572 66.167,125.667 66.324,125.667 66.583 C 125.667 66.813,125.742 67.000,125.833 67.000 C 125.925 67.000,126.000 67.112,126.000 67.250 C 126.000 67.387,126.112 67.500,126.250 67.500 C 126.394 67.500,126.500 67.651,126.500 67.856 C 126.500 68.052,126.688 68.386,126.917 68.598 C 127.146 68.810,127.333 69.138,127.333 69.325 C 127.333 69.513,127.414 69.667,127.512 69.667 C 127.775 69.667,128.167 70.104,128.167 70.397 C 128.167 70.537,128.354 70.839,128.583 71.068 C 128.813 71.297,129.000 71.638,129.000 71.826 C 129.000 72.018,129.109 72.167,129.250 72.167 C 129.387 72.167,129.500 72.279,129.500 72.417 C 129.500 72.554,129.612 72.667,129.750 72.667 C 129.906 72.667,130.000 72.824,130.000 73.083 C 130.000 73.313,130.075 73.500,130.167 73.500 C 130.258 73.500,130.333 73.612,130.333 73.750 C 130.333 73.887,130.446 74.000,130.583 74.000 C 130.739 74.000,130.833 74.157,130.833 74.417 C 130.833 74.646,130.907 74.833,130.997 74.833 C 131.087 74.833,131.207 75.021,131.265 75.250 C 131.322 75.479,131.436 75.667,131.518 75.667 C 131.600 75.667,131.667 75.779,131.667 75.917 C 131.667 76.054,131.779 76.167,131.917 76.167 C 132.061 76.167,132.167 76.317,132.167 76.523 C 132.167 76.718,132.354 77.052,132.583 77.265 C 132.813 77.477,133.000 77.769,133.000 77.914 C 133.000 78.059,133.112 78.220,133.249 78.273 C 133.386 78.325,133.457 78.435,133.406 78.517 C 133.355 78.600,133.431 78.667,133.573 78.667 C 133.716 78.667,133.833 78.799,133.833 78.960 C 133.833 79.121,134.026 79.461,134.261 79.714 C 134.496 79.968,134.699 80.323,134.713 80.504 C 134.726 80.685,134.834 80.833,134.952 80.833 C 135.070 80.833,135.167 80.946,135.167 81.083 C 135.167 81.221,135.234 81.333,135.315 81.333 C 135.397 81.333,135.511 81.521,135.568 81.750 C 135.626 81.979,135.747 82.167,135.837 82.167 C 135.926 82.167,136.000 82.279,136.000 82.417 C 136.000 82.554,136.112 82.667,136.250 82.667 C 136.394 82.667,136.500 82.817,136.500 83.023 C 136.500 83.218,136.688 83.552,136.917 83.765 C 137.146 83.977,137.333 84.292,137.333 84.464 C 137.333 84.636,137.521 84.877,137.750 85.000 C 138.000 85.134,138.167 85.369,138.167 85.588 C 138.167 85.789,138.354 86.094,138.583 86.266 C 138.813 86.439,139.000 86.749,139.000 86.956 C 139.000 87.180,139.101 87.333,139.250 87.333 C 139.387 87.333,139.500 87.446,139.500 87.583 C 139.500 87.721,139.574 87.833,139.663 87.833 C 139.753 87.833,139.874 88.021,139.932 88.250 C 139.989 88.479,140.103 88.667,140.185 88.667 C 140.266 88.667,140.333 88.854,140.333 89.083 C 140.333 89.343,140.428 89.500,140.583 89.500 C 140.721 89.500,140.833 89.612,140.833 89.750 C 140.833 89.888,140.908 90.000,141.000 90.000 C 141.092 90.000,141.167 90.152,141.167 90.339 C 141.167 90.525,141.279 90.720,141.417 90.773 C 141.554 90.826,141.667 90.973,141.667 91.101 C 141.667 91.229,141.779 91.333,141.917 91.333 C 142.072 91.333,142.167 91.491,142.167 91.750 C 142.167 91.979,142.242 92.167,142.333 92.167 C 142.425 92.167,142.500 92.279,142.500 92.417 C 142.500 92.554,142.612 92.667,142.750 92.667 C 142.892 92.667,143.000 92.816,143.000 93.012 C 143.000 93.381,143.361 93.833,143.655 93.833 C 143.753 93.833,143.833 94.010,143.833 94.227 C 143.833 94.452,144.012 94.754,144.250 94.933 C 144.479 95.105,144.667 95.405,144.667 95.600 C 144.667 95.794,144.854 96.094,145.083 96.266 C 145.313 96.439,145.500 96.749,145.500 96.956 C 145.500 97.180,145.601 97.333,145.750 97.333 C 145.887 97.333,146.000 97.446,146.000 97.583 C 146.000 97.721,146.112 97.833,146.250 97.833 C 146.406 97.833,146.500 97.991,146.500 98.250 C 146.500 98.479,146.575 98.667,146.667 98.667 C 146.758 98.667,146.833 98.779,146.833 98.917 C 146.833 99.054,146.946 99.167,147.083 99.167 C 147.228 99.167,147.333 99.317,147.333 99.523 C 147.333 99.718,147.521 100.052,147.750 100.265 C 147.979 100.477,148.167 100.804,148.167 100.992 C 148.167 101.184,148.276 101.333,148.417 101.333 C 148.572 101.333,148.667 101.491,148.667 101.750 L 148.667 102.167 155.583 102.167 L 162.500 102.167 162.500 73.998 L 162.500 45.829 156.208 45.873 L 149.917 45.917 149.874 64.042 C 149.846 75.932,149.775 82.167,149.666 82.167 C 149.575 82.167,149.500 82.092,149.500 82.000 C 149.500 81.908,149.387 81.833,149.250 81.833 C 149.112 81.833,149.000 81.699,149.000 81.535 C 149.000 81.141,148.405 79.984,148.271 80.118 C 148.214 80.175,148.167 80.097,148.167 79.944 C 148.167 79.792,148.054 79.667,147.917 79.667 C 147.761 79.667,147.667 79.509,147.667 79.250 C 147.667 79.021,147.592 78.833,147.500 78.833 C 147.408 78.833,147.333 78.721,147.333 78.583 C 147.333 78.446,147.221 78.333,147.083 78.333 C 146.939 78.333,146.833 78.183,146.833 77.977 C 146.833 77.782,146.646 77.448,146.417 77.235 C 146.188 77.023,146.000 76.696,146.000 76.508 C 146.000 76.316,145.891 76.167,145.750 76.167 C 145.612 76.167,145.500 76.054,145.500 75.917 C 145.500 75.779,145.425 75.667,145.333 75.667 C 145.242 75.667,145.165 75.535,145.164 75.375 C 145.162 75.215,144.975 74.907,144.747 74.691 C 144.520 74.475,144.333 74.173,144.333 74.020 C 144.333 73.729,143.783 73.167,143.498 73.167 C 143.407 73.167,143.333 72.974,143.333 72.738 C 143.333 72.299,142.997 71.833,142.679 71.833 C 142.580 71.833,142.500 71.646,142.500 71.417 C 142.500 71.157,142.406 71.000,142.250 71.000 C 142.103 71.000,141.998 70.845,141.995 70.625 C 141.989 70.195,141.637 69.667,141.357 69.667 C 141.252 69.667,141.167 69.479,141.167 69.250 C 141.167 69.021,141.092 68.833,141.000 68.833 C 140.908 68.833,140.833 68.721,140.833 68.583 C 140.833 68.446,140.721 68.333,140.583 68.333 C 140.428 68.333,140.333 68.176,140.333 67.917 C 140.333 67.657,140.239 67.500,140.083 67.500 C 139.946 67.500,139.833 67.387,139.833 67.250 C 139.833 67.112,139.758 67.000,139.667 67.000 C 139.575 67.000,139.500 66.813,139.500 66.583 C 139.500 66.324,139.406 66.167,139.250 66.167 C 139.112 66.167,139.000 66.054,139.000 65.917 C 139.000 65.779,138.925 65.667,138.833 65.667 C 138.742 65.667,138.667 65.533,138.667 65.370 C 138.667 65.065,138.124 64.500,137.831 64.500 C 137.741 64.500,137.667 64.307,137.667 64.071 C 137.667 63.632,137.330 63.167,137.012 63.167 C 136.914 63.167,136.833 62.979,136.833 62.750 C 136.833 62.521,136.758 62.333,136.667 62.333 C 136.575 62.333,136.500 62.221,136.500 62.083 C 136.500 61.946,136.387 61.833,136.250 61.833 C 136.094 61.833,136.000 61.676,136.000 61.417 C 136.000 61.157,135.906 61.000,135.750 61.000 C 135.594 61.000,135.500 60.843,135.500 60.583 C 135.500 60.354,135.425 60.167,135.333 60.167 C 135.242 60.167,135.167 60.054,135.167 59.917 C 135.167 59.779,135.054 59.667,134.917 59.667 C 134.761 59.667,134.667 59.509,134.667 59.250 C 134.667 59.021,134.592 58.833,134.500 58.833 C 134.408 58.833,134.333 58.721,134.333 58.583 C 134.333 58.446,134.221 58.333,134.083 58.333 C 133.928 58.333,133.833 58.176,133.833 57.917 C 133.833 57.657,133.739 57.500,133.583 57.500 C 133.446 57.500,133.333 57.387,133.333 57.250 C 133.333 57.112,133.258 57.000,133.167 57.000 C 133.075 57.000,133.000 56.813,133.000 56.583 C 133.000 56.354,132.920 56.167,132.821 56.167 C 132.556 56.167,132.167 55.728,132.167 55.429 C 132.167 55.138,131.594 54.500,131.333 54.500 C 131.242 54.500,131.164 54.331,131.161 54.125 C 131.155 53.695,130.803 53.167,130.523 53.167 C 130.419 53.167,130.333 52.979,130.333 52.750 C 130.333 52.521,130.258 52.333,130.167 52.333 C 130.075 52.333,130.000 52.181,130.000 51.995 C 130.000 51.809,129.887 51.613,129.750 51.560 C 129.612 51.508,129.500 51.360,129.500 51.232 C 129.500 51.104,129.387 51.000,129.250 51.000 C 129.094 51.000,129.000 50.843,129.000 50.583 C 129.000 50.354,128.925 50.167,128.833 50.167 C 128.742 50.167,128.667 50.054,128.667 49.917 C 128.667 49.779,128.554 49.667,128.417 49.667 C 128.272 49.667,128.167 49.516,128.167 49.311 C 128.167 49.115,127.979 48.781,127.750 48.569 C 127.521 48.356,127.333 48.029,127.333 47.841 C 127.333 47.649,127.224 47.500,127.083 47.500 C 126.946 47.500,126.833 47.387,126.833 47.250 C 126.833 47.112,126.758 47.000,126.667 47.000 C 126.575 47.000,126.500 46.867,126.500 46.704 C 126.500 45.848,126.371 45.833,118.748 45.833 L 111.667 45.833 111.667 74.000 M174.167 74.000 L 174.167 102.167 180.917 102.167 L 187.667 102.167 187.667 91.333 L 187.667 80.500 196.583 80.500 L 205.500 80.500 205.500 75.083 L 205.500 69.667 196.583 69.667 L 187.667 69.667 187.667 63.333 L 187.667 57.000 197.167 57.000 L 206.667 57.000 206.667 51.417 L 206.667 45.833 190.417 45.833 L 174.167 45.833 174.167 74.000 M211.004 51.417 L 211.017 57.000 218.842 57.000 L 226.667 57.000 226.667 79.583 L 226.667 102.167 233.417 102.167 L 240.167 102.167 240.167 79.583 L 240.167 57.000 247.917 57.000 L 255.667 57.000 255.667 51.417 L 255.667 45.833 233.329 45.833 L 210.992 45.833 211.004 51.417 M27.833 58.427 C 27.833 58.559,27.758 58.667,27.667 58.667 C 27.575 58.667,27.500 58.512,27.500 58.323 C 27.500 58.135,27.575 58.027,27.667 58.083 C 27.758 58.140,27.833 58.294,27.833 58.427 M27.500 60.070 C 27.500 60.108,27.454 60.258,27.399 60.403 C 27.256 60.775,27.000 60.731,27.000 60.333 C 27.000 60.148,27.111 60.000,27.250 60.000 C 27.387 60.000,27.500 60.031,27.500 60.070 M268.306 61.157 C 268.275 61.244,267.811 61.332,267.275 61.353 C 266.649 61.378,266.270 61.471,266.216 61.613 C 266.166 61.742,265.870 61.833,265.500 61.833 C 265.093 61.833,264.835 61.922,264.773 62.083 C 264.712 62.241,264.457 62.333,264.079 62.333 C 263.722 62.333,263.522 62.401,263.583 62.500 C 263.643 62.597,263.474 62.667,263.177 62.667 C 262.834 62.667,262.667 62.749,262.667 62.917 C 262.667 63.072,262.509 63.167,262.250 63.167 C 262.021 63.167,261.833 63.242,261.833 63.333 C 261.833 63.425,261.646 63.500,261.417 63.500 C 261.157 63.500,261.000 63.594,261.000 63.750 C 261.000 63.906,260.843 64.000,260.583 64.000 C 260.324 64.000,260.167 64.094,260.167 64.250 C 260.167 64.387,260.054 64.500,259.917 64.500 C 259.779 64.500,259.667 64.575,259.667 64.667 C 259.667 64.758,259.554 64.833,259.417 64.833 C 259.279 64.833,259.167 64.946,259.167 65.083 C 259.167 65.225,259.017 65.333,258.821 65.333 C 258.452 65.333,258.000 65.694,258.000 65.988 C 258.000 66.086,257.887 66.167,257.750 66.167 C 257.612 66.167,257.500 66.279,257.500 66.417 C 257.500 66.554,257.420 66.667,257.321 66.667 C 257.091 66.667,256.667 67.091,256.667 67.321 C 256.667 67.420,256.563 67.500,256.436 67.500 C 256.309 67.500,256.072 67.781,255.910 68.125 C 255.748 68.469,255.439 68.902,255.224 69.089 C 255.009 69.275,254.833 69.556,254.833 69.714 C 254.833 69.871,254.758 70.000,254.667 70.000 C 254.575 70.000,254.500 70.112,254.500 70.250 C 254.500 70.387,254.387 70.500,254.250 70.500 C 254.097 70.500,254.000 70.656,254.000 70.903 C 254.000 71.124,253.918 71.333,253.817 71.367 C 253.716 71.400,253.613 71.684,253.589 71.998 C 253.564 72.312,253.459 72.597,253.355 72.632 C 253.252 72.666,253.167 72.868,253.167 73.079 C 253.167 73.291,253.069 73.502,252.949 73.548 C 252.819 73.598,252.714 73.961,252.690 74.441 C 252.667 74.886,252.578 75.275,252.491 75.306 C 252.404 75.336,252.333 75.842,252.333 76.431 C 252.333 77.270,252.280 77.500,252.083 77.500 C 251.867 77.500,251.833 78.111,251.833 82.000 C 251.833 85.889,251.867 86.500,252.083 86.500 C 252.280 86.500,252.333 86.730,252.333 87.569 C 252.333 88.158,252.404 88.664,252.491 88.694 C 252.578 88.725,252.667 89.104,252.689 89.536 C 252.712 90.000,252.818 90.356,252.947 90.405 C 253.068 90.452,253.167 90.671,253.167 90.894 C 253.167 91.116,253.284 91.343,253.427 91.398 C 253.571 91.453,253.641 91.574,253.583 91.668 C 253.525 91.761,253.595 92.073,253.739 92.361 C 253.882 92.649,254.000 92.975,254.000 93.086 C 254.000 93.196,254.188 93.427,254.417 93.600 C 254.646 93.772,254.833 94.055,254.833 94.230 C 254.833 94.404,255.058 94.762,255.333 95.025 C 255.608 95.288,255.833 95.615,255.833 95.751 C 255.833 95.888,255.908 96.000,256.000 96.000 C 256.092 96.000,256.167 96.112,256.167 96.250 C 256.167 96.388,256.279 96.500,256.417 96.500 C 256.554 96.500,256.667 96.580,256.667 96.679 C 256.667 96.909,257.091 97.333,257.321 97.333 C 257.420 97.333,257.500 97.446,257.500 97.583 C 257.500 97.721,257.612 97.833,257.750 97.833 C 257.887 97.833,258.000 97.914,258.000 98.012 C 258.000 98.306,258.452 98.667,258.821 98.667 C 259.017 98.667,259.167 98.775,259.167 98.917 C 259.167 99.054,259.279 99.167,259.417 99.167 C 259.554 99.167,259.667 99.242,259.667 99.333 C 259.667 99.425,259.779 99.500,259.917 99.500 C 260.054 99.500,260.167 99.612,260.167 99.750 C 260.167 99.903,260.322 100.000,260.566 100.000 C 260.785 100.000,261.008 100.112,261.060 100.250 C 261.113 100.388,261.309 100.500,261.495 100.500 C 261.681 100.500,261.833 100.575,261.833 100.667 C 261.833 100.758,262.021 100.833,262.250 100.833 C 262.509 100.833,262.667 100.928,262.667 101.083 C 262.667 101.237,262.823 101.333,263.073 101.333 C 263.297 101.333,263.527 101.408,263.583 101.500 C 263.640 101.592,263.936 101.667,264.242 101.667 C 264.582 101.667,264.835 101.764,264.894 101.917 C 264.961 102.092,265.234 102.167,265.810 102.167 C 266.386 102.167,266.660 102.241,266.727 102.417 C 266.800 102.606,267.106 102.667,267.985 102.667 C 268.624 102.667,269.193 102.742,269.250 102.833 C 269.314 102.937,270.891 103.000,273.427 103.000 C 276.031 103.000,277.500 102.940,277.500 102.833 C 277.500 102.738,278.002 102.667,278.672 102.667 C 279.560 102.667,279.867 102.606,279.940 102.417 C 280.007 102.241,280.281 102.167,280.856 102.167 C 281.432 102.167,281.706 102.092,281.773 101.917 C 281.832 101.762,282.086 101.667,282.434 101.667 C 282.746 101.667,283.000 101.592,283.000 101.500 C 283.000 101.408,283.225 101.333,283.500 101.333 C 283.833 101.333,284.000 101.250,284.000 101.083 C 284.000 100.928,284.157 100.833,284.417 100.833 C 284.646 100.833,284.833 100.758,284.833 100.667 C 284.833 100.575,285.021 100.500,285.250 100.500 C 285.509 100.500,285.667 100.406,285.667 100.250 C 285.667 100.094,285.824 100.000,286.083 100.000 C 286.343 100.000,286.500 99.906,286.500 99.750 C 286.500 99.612,286.612 99.500,286.750 99.500 C 286.887 99.500,287.000 99.425,287.000 99.333 C 287.000 99.242,287.188 99.167,287.417 99.167 C 287.676 99.167,287.833 99.072,287.833 98.917 C 287.833 98.779,287.914 98.667,288.012 98.667 C 288.243 98.667,288.667 98.243,288.667 98.012 C 288.667 97.914,288.779 97.833,288.917 97.833 C 289.054 97.833,289.167 97.721,289.167 97.583 C 289.167 97.446,289.247 97.333,289.345 97.333 C 289.576 97.333,290.000 96.909,290.000 96.679 C 290.000 96.580,290.080 96.500,290.179 96.500 C 290.409 96.500,290.833 96.076,290.833 95.845 C 290.833 95.747,290.946 95.667,291.083 95.667 C 291.221 95.667,291.333 95.554,291.333 95.417 C 291.333 95.279,291.407 95.167,291.497 95.167 C 291.587 95.167,291.707 94.979,291.765 94.750 C 291.822 94.521,291.936 94.333,292.018 94.333 C 292.100 94.333,292.167 94.221,292.167 94.083 C 292.167 93.946,292.279 93.833,292.417 93.833 C 292.572 93.833,292.667 93.676,292.667 93.417 C 292.667 93.188,292.742 93.000,292.833 93.000 C 292.925 93.000,293.000 92.813,293.000 92.583 C 293.000 92.324,293.094 92.167,293.250 92.167 C 293.431 92.167,293.500 91.981,293.500 91.500 C 293.500 91.019,293.569 90.833,293.750 90.833 C 293.906 90.833,294.000 90.676,294.000 90.417 C 294.000 90.188,294.075 90.000,294.167 90.000 C 294.258 90.000,294.333 89.633,294.333 89.184 C 294.333 88.613,294.408 88.340,294.583 88.273 C 294.767 88.202,294.833 87.912,294.833 87.172 C 294.833 86.613,294.907 86.167,295.000 86.167 C 295.107 86.167,295.167 84.472,295.167 81.417 C 295.167 78.361,295.107 76.667,295.000 76.667 C 294.908 76.667,294.833 76.254,294.833 75.750 C 294.833 75.046,294.775 74.833,294.583 74.833 C 294.394 74.833,294.333 74.630,294.333 74.000 C 294.333 73.542,294.258 73.167,294.167 73.167 C 294.075 73.167,294.000 72.987,294.000 72.768 C 294.000 72.548,293.887 72.326,293.750 72.273 C 293.612 72.220,293.500 71.987,293.500 71.755 C 293.500 71.491,293.406 71.333,293.250 71.333 C 293.094 71.333,293.000 71.176,293.000 70.917 C 293.000 70.688,292.925 70.500,292.833 70.500 C 292.742 70.500,292.667 70.313,292.667 70.083 C 292.667 69.824,292.572 69.667,292.417 69.667 C 292.272 69.667,292.167 69.516,292.167 69.311 C 292.167 69.115,291.979 68.781,291.750 68.569 C 291.521 68.356,291.333 68.104,291.333 68.008 C 291.333 67.912,291.253 67.833,291.155 67.833 C 290.861 67.833,290.500 67.381,290.500 67.012 C 290.500 66.816,290.392 66.667,290.250 66.667 C 290.112 66.667,290.000 66.554,290.000 66.417 C 290.000 66.279,289.896 66.167,289.768 66.167 C 289.640 66.167,289.492 66.054,289.440 65.917 C 289.387 65.779,289.224 65.667,289.077 65.667 C 288.773 65.667,288.333 65.279,288.333 65.012 C 288.333 64.914,288.221 64.833,288.083 64.833 C 287.946 64.833,287.833 64.758,287.833 64.667 C 287.833 64.575,287.646 64.500,287.417 64.500 C 287.157 64.500,287.000 64.406,287.000 64.250 C 287.000 64.112,286.887 64.000,286.750 64.000 C 286.612 64.000,286.500 63.887,286.500 63.750 C 286.500 63.594,286.343 63.500,286.083 63.500 C 285.854 63.500,285.667 63.425,285.667 63.333 C 285.667 63.242,285.479 63.167,285.250 63.167 C 284.991 63.167,284.833 63.072,284.833 62.917 C 284.833 62.761,284.676 62.667,284.417 62.667 C 284.188 62.667,284.000 62.598,284.000 62.515 C 284.000 62.431,283.700 62.312,283.333 62.250 C 282.967 62.188,282.667 62.069,282.667 61.985 C 282.667 61.902,282.367 61.833,282.000 61.833 C 281.519 61.833,281.333 61.764,281.333 61.583 C 281.333 61.387,281.102 61.333,280.250 61.333 C 279.639 61.333,279.167 61.261,279.167 61.167 C 279.167 60.946,268.383 60.937,268.306 61.157 M323.500 61.167 C 323.500 61.259,323.054 61.333,322.495 61.333 C 321.755 61.333,321.464 61.399,321.394 61.583 C 321.340 61.723,321.092 61.833,320.833 61.833 C 320.574 61.833,320.327 61.944,320.273 62.083 C 320.220 62.221,320.057 62.333,319.910 62.333 C 319.606 62.333,319.167 62.721,319.167 62.988 C 319.167 63.086,318.985 63.167,318.762 63.167 C 318.529 63.167,318.219 63.343,318.030 63.583 C 317.850 63.813,317.619 64.000,317.518 64.000 C 317.416 64.000,317.333 64.112,317.333 64.250 C 317.333 64.387,317.258 64.500,317.167 64.500 C 317.075 64.500,317.000 64.688,317.000 64.917 C 317.000 65.146,316.926 65.333,316.835 65.333 C 316.509 65.333,316.000 65.915,316.000 66.287 C 316.000 66.496,315.925 66.667,315.833 66.667 C 315.730 66.667,315.667 65.750,315.667 64.250 L 315.667 61.833 308.917 61.833 L 302.167 61.833 302.167 82.002 L 302.167 102.170 308.875 102.127 L 315.583 102.083 315.626 90.625 C 315.654 83.179,315.727 79.167,315.834 79.167 C 315.926 79.167,316.000 78.867,316.000 78.500 C 316.000 78.019,316.069 77.833,316.250 77.833 C 316.406 77.833,316.500 77.676,316.500 77.417 C 316.500 77.188,316.574 77.000,316.663 77.000 C 316.753 77.000,316.874 76.813,316.932 76.583 C 316.989 76.354,317.103 76.167,317.185 76.167 C 317.266 76.167,317.333 75.979,317.333 75.750 C 317.333 75.491,317.428 75.333,317.583 75.333 C 317.721 75.333,317.833 75.221,317.833 75.083 C 317.833 74.946,317.908 74.833,318.000 74.833 C 318.092 74.833,318.167 74.721,318.167 74.583 C 318.167 74.446,318.279 74.333,318.417 74.333 C 318.554 74.333,318.667 74.258,318.667 74.167 C 318.667 74.075,318.779 74.000,318.917 74.000 C 319.054 74.000,319.167 73.887,319.167 73.750 C 319.167 73.594,319.324 73.500,319.583 73.500 C 319.813 73.500,320.000 73.425,320.000 73.333 C 320.000 73.242,320.152 73.167,320.339 73.167 C 320.525 73.167,320.720 73.054,320.773 72.917 C 320.840 72.742,321.113 72.667,321.684 72.667 C 322.298 72.667,322.500 72.605,322.500 72.417 C 322.500 72.225,322.713 72.167,323.417 72.167 C 324.120 72.167,324.333 72.225,324.333 72.417 C 324.333 72.613,324.563 72.667,325.399 72.667 C 326.192 72.667,326.489 72.731,326.560 72.917 C 326.620 73.074,326.875 73.167,327.245 73.167 C 327.568 73.167,327.833 73.242,327.833 73.333 C 327.833 73.425,328.096 73.500,328.417 73.500 L 329.000 73.500 329.000 67.417 L 329.000 61.333 328.417 61.333 C 328.096 61.333,327.833 61.258,327.833 61.167 C 327.833 61.064,327.000 61.000,325.667 61.000 C 324.333 61.000,323.500 61.064,323.500 61.167 M367.667 61.167 C 367.667 61.262,367.165 61.333,366.495 61.333 C 365.607 61.333,365.300 61.394,365.227 61.583 C 365.158 61.763,364.877 61.833,364.232 61.833 C 363.738 61.833,363.333 61.906,363.333 61.994 C 363.333 62.083,362.958 62.205,362.500 62.266 C 362.042 62.327,361.667 62.442,361.667 62.521 C 361.667 62.601,361.367 62.667,361.000 62.667 C 360.519 62.667,360.333 62.736,360.333 62.917 C 360.333 63.097,360.148 63.167,359.667 63.167 C 359.300 63.167,359.000 63.242,359.000 63.333 C 359.000 63.425,358.813 63.500,358.583 63.500 C 358.324 63.500,358.167 63.594,358.167 63.750 C 358.167 63.887,358.054 64.000,357.917 64.000 C 357.700 64.000,357.667 64.667,357.667 69.000 L 357.667 74.000 358.333 74.000 C 358.815 74.000,359.000 73.931,359.000 73.750 C 359.000 73.606,359.151 73.500,359.356 73.500 C 359.552 73.500,359.886 73.313,360.098 73.083 C 360.310 72.854,360.638 72.667,360.825 72.667 C 361.018 72.667,361.167 72.557,361.167 72.417 C 361.167 72.261,361.324 72.167,361.583 72.167 C 361.813 72.167,362.000 72.092,362.000 72.000 C 362.000 71.908,362.265 71.833,362.589 71.833 C 362.958 71.833,363.213 71.740,363.273 71.583 C 363.326 71.446,363.548 71.333,363.768 71.333 C 363.987 71.333,364.167 71.258,364.167 71.167 C 364.167 71.075,364.452 71.000,364.801 71.000 C 365.151 71.000,365.582 70.890,365.760 70.755 C 365.938 70.621,366.440 70.508,366.875 70.505 C 367.465 70.501,367.667 70.436,367.667 70.250 C 367.667 70.037,368.120 70.000,370.750 70.000 C 373.380 70.000,373.833 70.037,373.833 70.250 C 373.833 70.418,374.001 70.500,374.341 70.500 C 374.669 70.500,374.986 70.648,375.235 70.917 C 375.448 71.146,375.782 71.333,375.977 71.333 C 376.183 71.333,376.333 71.439,376.333 71.583 C 376.333 71.721,376.446 71.833,376.583 71.833 C 376.739 71.833,376.833 71.991,376.833 72.250 C 376.833 72.479,376.908 72.667,377.000 72.667 C 377.092 72.667,377.167 72.819,377.167 73.005 C 377.167 73.191,377.279 73.387,377.417 73.440 C 377.592 73.507,377.667 73.781,377.667 74.356 C 377.667 74.932,377.741 75.206,377.917 75.273 C 378.539 75.512,378.045 75.667,376.661 75.667 C 375.477 75.667,375.136 75.720,375.060 75.917 C 374.984 76.116,374.627 76.167,373.316 76.167 C 372.327 76.167,371.667 76.233,371.667 76.333 C 371.667 76.432,371.054 76.500,370.161 76.500 C 368.977 76.500,368.636 76.553,368.560 76.750 C 368.485 76.946,368.146 77.000,366.982 77.000 C 365.776 77.000,365.500 77.047,365.500 77.250 C 365.500 77.439,365.296 77.500,364.667 77.500 C 364.208 77.500,363.833 77.571,363.833 77.658 C 363.833 77.745,363.440 77.839,362.958 77.866 C 362.367 77.900,362.097 77.984,362.125 78.125 C 362.151 78.255,361.978 78.333,361.667 78.333 C 361.392 78.333,361.167 78.408,361.167 78.500 C 361.167 78.592,360.979 78.667,360.750 78.667 C 360.491 78.667,360.333 78.761,360.333 78.917 C 360.333 79.072,360.176 79.167,359.917 79.167 C 359.657 79.167,359.500 79.261,359.500 79.417 C 359.500 79.563,359.345 79.669,359.125 79.672 C 358.695 79.678,358.167 80.030,358.167 80.310 C 358.167 80.415,358.054 80.500,357.917 80.500 C 357.779 80.500,357.667 80.567,357.667 80.649 C 357.667 80.730,357.479 80.844,357.250 80.902 C 356.946 80.978,356.833 81.118,356.833 81.420 C 356.833 81.647,356.753 81.833,356.655 81.833 C 356.424 81.833,356.000 82.257,356.000 82.488 C 356.000 82.586,355.887 82.667,355.750 82.667 C 355.594 82.667,355.500 82.824,355.500 83.083 C 355.500 83.313,355.425 83.500,355.333 83.500 C 355.242 83.500,355.167 83.612,355.167 83.750 C 355.167 83.887,355.054 84.000,354.917 84.000 C 354.744 84.000,354.667 84.174,354.667 84.566 C 354.667 84.914,354.571 85.168,354.417 85.227 C 354.261 85.287,354.167 85.541,354.167 85.902 C 354.167 86.220,354.092 86.527,354.000 86.583 C 353.896 86.647,353.833 88.193,353.833 90.667 C 353.833 93.140,353.896 94.686,354.000 94.750 C 354.092 94.807,354.167 95.103,354.167 95.409 C 354.167 95.749,354.264 96.002,354.417 96.060 C 354.554 96.113,354.667 96.346,354.667 96.578 C 354.667 96.842,354.760 97.000,354.917 97.000 C 355.061 97.000,355.167 97.151,355.167 97.356 C 355.167 97.552,355.354 97.886,355.583 98.098 C 355.813 98.310,356.000 98.603,356.000 98.747 C 356.000 98.892,356.112 99.053,356.249 99.106 C 356.386 99.159,356.457 99.269,356.406 99.351 C 356.355 99.433,356.431 99.500,356.573 99.500 C 356.716 99.500,356.833 99.612,356.833 99.750 C 356.833 99.888,356.912 100.000,357.008 100.000 C 357.104 100.000,357.356 100.188,357.569 100.417 C 357.781 100.646,358.070 100.833,358.210 100.833 C 358.350 100.833,358.508 100.946,358.560 101.083 C 358.613 101.221,358.846 101.333,359.078 101.333 C 359.310 101.333,359.500 101.408,359.500 101.500 C 359.500 101.592,359.688 101.667,359.917 101.667 C 360.176 101.667,360.333 101.761,360.333 101.917 C 360.333 102.063,360.488 102.169,360.708 102.172 C 360.915 102.175,361.229 102.287,361.407 102.422 C 361.585 102.557,362.016 102.667,362.365 102.667 C 362.714 102.667,363.000 102.742,363.000 102.833 C 363.000 102.939,364.167 103.000,366.167 103.000 C 368.167 103.000,369.333 102.939,369.333 102.833 C 369.333 102.742,369.711 102.667,370.172 102.667 C 370.764 102.667,371.039 102.593,371.106 102.417 C 371.169 102.254,371.428 102.167,371.851 102.167 C 372.317 102.167,372.500 102.096,372.500 101.917 C 372.500 101.761,372.657 101.667,372.917 101.667 C 373.146 101.667,373.333 101.592,373.333 101.500 C 373.333 101.408,373.521 101.333,373.750 101.333 C 374.009 101.333,374.167 101.239,374.167 101.083 C 374.167 100.946,374.279 100.833,374.417 100.833 C 374.554 100.833,374.667 100.763,374.667 100.678 C 374.667 100.592,374.835 100.469,375.042 100.405 C 375.248 100.340,375.879 99.810,376.443 99.227 C 377.744 97.883,377.667 97.823,377.667 100.167 L 377.667 102.167 383.917 102.167 L 390.167 102.167 390.167 88.083 C 390.167 78.806,390.110 74.000,390.000 74.000 C 389.906 74.000,389.833 73.528,389.833 72.917 C 389.833 72.065,389.780 71.833,389.583 71.833 C 389.394 71.833,389.333 71.630,389.333 71.000 C 389.333 70.542,389.258 70.167,389.167 70.167 C 389.075 70.167,389.000 69.942,389.000 69.667 C 389.000 69.333,388.917 69.167,388.750 69.167 C 388.577 69.167,388.500 68.993,388.500 68.607 C 388.500 68.204,388.383 67.959,388.083 67.734 C 387.854 67.561,387.667 67.251,387.667 67.044 C 387.667 66.820,387.565 66.667,387.417 66.667 C 387.279 66.667,387.167 66.554,387.167 66.417 C 387.167 66.279,387.092 66.167,387.000 66.167 C 386.908 66.167,386.833 66.054,386.833 65.917 C 386.833 65.779,386.726 65.667,386.595 65.667 C 386.464 65.667,386.333 65.498,386.303 65.292 C 386.269 65.051,386.116 64.898,385.875 64.863 C 385.669 64.834,385.500 64.740,385.500 64.655 C 385.500 64.570,385.387 64.500,385.250 64.500 C 385.113 64.500,385.000 64.419,385.000 64.321 C 385.000 64.006,384.039 63.167,383.679 63.167 C 383.489 63.167,383.333 63.089,383.333 62.995 C 383.333 62.900,383.202 62.779,383.042 62.724 C 382.255 62.459,381.500 62.088,381.500 61.968 C 381.500 61.894,381.200 61.833,380.833 61.833 C 380.352 61.833,380.167 61.764,380.167 61.583 C 380.167 61.389,379.946 61.333,379.177 61.333 C 378.632 61.333,378.140 61.258,378.083 61.167 C 378.018 61.061,376.082 61.000,372.823 61.000 C 369.497 61.000,367.667 61.059,367.667 61.167 M334.333 82.002 L 334.333 102.171 340.792 102.127 L 347.250 102.083 347.292 81.958 L 347.335 61.833 340.834 61.833 L 334.333 61.833 334.333 82.002 M47.147 67.020 C 47.753 67.625,47.834 67.797,47.835 68.478 C 47.843 72.357,48.179 75.645,48.667 76.606 C 48.939 77.143,49.163 77.671,49.165 77.778 C 49.166 77.886,49.386 78.022,49.654 78.081 C 49.923 78.140,50.261 78.369,50.406 78.591 C 51.390 80.093,59.141 81.202,61.117 80.124 C 61.410 79.964,61.886 79.833,62.174 79.833 C 62.544 79.833,62.722 79.743,62.779 79.524 C 62.824 79.350,63.291 79.009,63.848 78.743 C 64.870 78.255,65.095 78.009,65.855 76.559 C 66.299 75.712,66.305 75.663,66.307 72.367 C 66.309 70.527,66.383 68.895,66.473 68.725 C 66.562 68.555,66.715 68.115,66.813 67.747 C 67.173 66.388,66.928 66.423,76.417 66.370 L 84.750 66.323 85.537 67.135 C 86.104 67.720,86.325 68.083,86.328 68.432 C 86.367 73.805,86.211 77.834,85.927 78.715 C 85.669 79.517,85.652 79.745,85.826 80.070 C 86.110 80.600,85.908 81.500,85.505 81.500 C 85.289 81.500,85.171 81.675,85.088 82.117 C 85.024 82.457,84.842 83.000,84.683 83.326 C 84.523 83.651,84.292 84.254,84.167 84.667 C 84.043 85.079,83.810 85.529,83.649 85.667 C 83.382 85.894,82.810 86.897,81.720 89.046 C 81.221 90.030,76.752 94.507,75.768 95.009 C 75.392 95.201,74.783 95.575,74.417 95.840 C 74.050 96.105,73.649 96.325,73.525 96.328 C 73.402 96.331,73.090 96.558,72.833 96.833 C 72.576 97.108,72.201 97.333,71.999 97.333 C 71.798 97.333,71.284 97.515,70.858 97.737 C 69.517 98.436,68.113 98.960,67.254 99.081 C 66.798 99.146,66.160 99.331,65.837 99.493 C 65.514 99.656,64.763 99.842,64.168 99.907 C 63.573 99.972,63.011 100.085,62.918 100.158 C 62.760 100.282,60.043 100.530,58.583 100.553 C 56.711 100.583,51.963 100.275,51.112 100.069 C 50.577 99.939,49.920 99.833,49.651 99.833 C 49.382 99.833,49.032 99.765,48.873 99.682 C 48.714 99.598,48.096 99.379,47.500 99.195 C 45.170 98.475,43.722 97.919,43.083 97.500 C 42.717 97.259,42.004 96.851,41.500 96.594 C 40.996 96.337,40.261 95.911,39.867 95.647 C 39.472 95.383,39.108 95.167,39.057 95.167 C 38.902 95.167,37.598 94.109,37.366 93.795 C 37.246 93.633,37.053 93.500,36.937 93.500 C 36.445 93.500,32.500 88.914,32.500 88.342 C 32.500 88.246,32.427 88.167,32.337 88.167 C 32.247 88.167,32.013 87.848,31.817 87.458 C 31.621 87.069,31.197 86.381,30.876 85.929 C 30.555 85.477,30.294 84.915,30.297 84.679 C 30.300 84.443,30.212 84.100,30.101 83.917 C 29.990 83.733,29.802 83.246,29.682 82.833 C 29.563 82.421,29.362 81.783,29.236 81.417 C 29.109 81.050,28.899 80.112,28.768 79.333 C 27.840 73.814,27.973 68.085,29.052 67.073 C 29.837 66.336,29.743 66.344,38.272 66.338 L 46.461 66.333 47.147 67.020 M87.167 69.583 C 87.167 69.813,87.092 70.000,87.000 70.000 C 86.908 70.000,86.833 69.813,86.833 69.583 C 86.833 69.354,86.908 69.167,87.000 69.167 C 87.092 69.167,87.167 69.354,87.167 69.583 M275.333 71.167 C 275.333 71.258,275.708 71.333,276.167 71.333 C 276.796 71.333,277.000 71.394,277.000 71.583 C 277.000 71.739,277.157 71.833,277.417 71.833 C 277.646 71.833,277.833 71.908,277.833 72.000 C 277.833 72.092,277.946 72.167,278.083 72.167 C 278.221 72.167,278.333 72.279,278.333 72.417 C 278.333 72.572,278.491 72.667,278.750 72.667 C 279.009 72.667,279.167 72.761,279.167 72.917 C 279.167 73.054,279.247 73.167,279.345 73.167 C 279.639 73.167,280.000 73.619,280.000 73.988 C 280.000 74.184,280.108 74.333,280.250 74.333 C 280.387 74.333,280.500 74.440,280.500 74.569 C 280.500 74.699,280.578 74.832,280.674 74.863 C 280.769 74.895,280.881 75.182,280.921 75.501 C 280.961 75.820,281.071 76.107,281.164 76.138 C 281.257 76.169,281.333 76.453,281.333 76.769 C 281.333 77.126,281.428 77.380,281.583 77.440 C 281.780 77.515,281.833 77.854,281.833 79.018 C 281.833 79.895,281.901 80.500,282.000 80.500 C 282.097 80.500,282.167 81.056,282.167 81.833 C 282.167 82.611,282.097 83.167,282.000 83.167 C 281.901 83.167,281.833 83.778,281.833 84.667 C 281.833 85.889,281.787 86.167,281.583 86.167 C 281.404 86.167,281.333 86.350,281.333 86.819 C 281.333 87.178,281.250 87.500,281.148 87.534 C 281.045 87.568,280.938 87.817,280.908 88.086 C 280.879 88.356,280.775 88.603,280.677 88.635 C 280.580 88.668,280.500 88.793,280.500 88.913 C 280.500 89.033,280.387 89.174,280.250 89.227 C 280.112 89.280,280.000 89.475,280.000 89.661 C 280.000 89.848,279.925 90.000,279.833 90.000 C 279.742 90.000,279.667 90.112,279.667 90.250 C 279.667 90.388,279.589 90.500,279.494 90.500 C 279.299 90.500,278.333 91.445,278.333 91.637 C 278.333 91.706,278.166 91.775,277.961 91.790 C 277.756 91.806,277.562 91.897,277.530 91.993 C 277.498 92.088,277.289 92.167,277.064 92.167 C 276.840 92.167,276.613 92.279,276.560 92.417 C 276.480 92.625,276.009 92.667,273.750 92.667 C 271.491 92.667,271.020 92.625,270.940 92.417 C 270.882 92.267,270.631 92.167,270.316 92.167 C 269.967 92.167,269.657 92.025,269.402 91.750 C 269.190 91.521,268.862 91.333,268.675 91.333 C 268.482 91.333,268.333 91.224,268.333 91.083 C 268.333 90.946,268.253 90.833,268.155 90.833 C 267.924 90.833,267.500 90.409,267.500 90.179 C 267.500 90.080,267.387 90.000,267.250 90.000 C 267.106 90.000,267.000 89.849,267.000 89.644 C 267.000 89.448,266.813 89.114,266.583 88.902 C 266.314 88.653,266.167 88.336,266.167 88.008 C 266.167 87.668,266.084 87.500,265.917 87.500 C 265.736 87.500,265.667 87.315,265.667 86.833 C 265.667 86.467,265.592 86.167,265.500 86.167 C 265.404 86.167,265.333 85.637,265.333 84.911 C 265.333 83.949,265.275 83.634,265.083 83.560 C 264.887 83.485,264.833 83.148,264.833 82.000 C 264.833 80.852,264.887 80.515,265.083 80.440 C 265.275 80.366,265.333 80.051,265.333 79.089 C 265.333 78.363,265.404 77.833,265.500 77.833 C 265.592 77.833,265.667 77.533,265.667 77.167 C 265.667 76.685,265.736 76.500,265.917 76.500 C 266.072 76.500,266.167 76.343,266.167 76.083 C 266.167 75.854,266.240 75.667,266.330 75.667 C 266.420 75.667,266.541 75.479,266.598 75.250 C 266.656 75.021,266.770 74.833,266.851 74.833 C 266.933 74.833,267.000 74.646,267.000 74.417 C 267.000 74.157,267.094 74.000,267.250 74.000 C 267.387 74.000,267.500 73.920,267.500 73.821 C 267.500 73.591,267.924 73.167,268.155 73.167 C 268.253 73.167,268.333 73.054,268.333 72.917 C 268.333 72.779,268.446 72.667,268.583 72.667 C 268.721 72.667,268.833 72.554,268.833 72.417 C 268.833 72.261,268.991 72.167,269.250 72.167 C 269.479 72.167,269.667 72.092,269.667 72.000 C 269.667 71.908,269.854 71.833,270.083 71.833 C 270.343 71.833,270.500 71.739,270.500 71.583 C 270.500 71.394,270.704 71.333,271.333 71.333 C 271.792 71.333,272.167 71.258,272.167 71.167 C 272.167 71.067,272.806 71.000,273.750 71.000 C 274.694 71.000,275.333 71.067,275.333 71.167 M64.667 76.907 C 64.667 77.039,64.592 77.193,64.500 77.250 C 64.408 77.307,64.333 77.199,64.333 77.010 C 64.333 76.821,64.408 76.667,64.500 76.667 C 64.592 76.667,64.667 76.775,64.667 76.907 M378.167 84.982 C 378.167 86.146,378.113 86.485,377.917 86.560 C 377.740 86.628,377.667 86.903,377.667 87.495 C 377.667 88.129,377.606 88.333,377.417 88.333 C 377.279 88.333,377.176 88.390,377.186 88.458 C 377.270 88.987,377.103 89.526,376.753 89.858 C 376.525 90.073,376.338 90.381,376.336 90.542 C 376.335 90.702,376.258 90.833,376.167 90.833 C 376.075 90.833,376.000 90.946,376.000 91.083 C 376.000 91.221,375.921 91.333,375.825 91.333 C 375.729 91.333,375.477 91.521,375.265 91.750 C 375.052 91.979,374.753 92.167,374.601 92.167 C 374.448 92.167,374.280 92.279,374.227 92.417 C 374.174 92.554,373.993 92.667,373.825 92.667 C 373.657 92.667,373.473 92.742,373.417 92.833 C 373.360 92.925,373.131 93.000,372.907 93.000 C 372.656 93.000,372.500 93.096,372.500 93.250 C 372.500 93.456,372.194 93.500,370.750 93.500 C 369.306 93.500,369.000 93.456,369.000 93.250 C 369.000 93.094,368.843 93.000,368.583 93.000 C 368.354 93.000,368.167 92.925,368.167 92.833 C 368.167 92.742,367.942 92.667,367.667 92.667 C 367.375 92.667,367.167 92.579,367.167 92.456 C 367.167 92.340,366.979 92.105,366.750 91.933 C 366.512 91.754,366.333 91.452,366.333 91.227 C 366.333 91.010,366.258 90.833,366.167 90.833 C 366.075 90.833,366.000 90.571,366.000 90.250 C 366.000 89.843,365.925 89.667,365.750 89.667 C 365.613 89.667,365.500 89.586,365.500 89.488 C 365.500 89.390,365.613 89.197,365.750 89.060 C 365.897 88.913,366.000 88.505,366.000 88.071 C 366.000 87.665,366.075 87.333,366.167 87.333 C 366.258 87.333,366.333 87.146,366.333 86.917 C 366.333 86.688,366.414 86.500,366.512 86.500 C 366.743 86.500,367.167 86.076,367.167 85.845 C 367.167 85.747,367.357 85.667,367.589 85.667 C 367.821 85.667,368.054 85.554,368.106 85.417 C 368.159 85.279,368.382 85.167,368.601 85.167 C 368.821 85.167,369.000 85.092,369.000 85.000 C 369.000 84.908,369.265 84.833,369.589 84.833 C 369.958 84.833,370.213 84.740,370.273 84.583 C 370.346 84.392,370.660 84.333,371.601 84.333 C 372.311 84.333,372.833 84.263,372.833 84.167 C 372.833 84.068,373.446 84.000,374.339 84.000 C 375.523 84.000,375.864 83.947,375.940 83.750 C 376.011 83.564,376.308 83.500,377.101 83.500 L 378.167 83.500 378.167 84.982 M32.667 91.990 C 32.667 92.168,32.583 92.365,32.481 92.428 C 32.253 92.569,32.000 92.195,32.117 91.890 C 32.248 91.548,32.667 91.624,32.667 91.990 M80.167 96.583 C 80.167 96.721,80.092 96.833,80.000 96.833 C 79.908 96.833,79.833 96.721,79.833 96.583 C 79.833 96.446,79.908 96.333,80.000 96.333 C 80.092 96.333,80.167 96.446,80.167 96.583 " stroke="none" fill="#147bfb" fill-rule="evenodd"></path><path id="path2" d="M30.131 42.801 C 29.974 42.865,33.549 42.917,38.076 42.917 L 46.306 42.917 46.752 43.333 C 47.594 44.121,47.578 43.967,47.672 52.333 L 47.761 60.250 47.756 52.211 L 47.750 44.171 47.039 43.461 L 46.329 42.750 38.373 42.718 C 33.997 42.700,30.288 42.737,30.131 42.801 M68.464 42.801 C 68.306 42.865,71.681 42.893,75.964 42.864 C 84.706 42.805,84.705 42.805,85.488 43.869 C 85.770 44.252,86.000 44.486,86.000 44.388 C 86.000 44.290,85.709 43.881,85.352 43.480 L 84.705 42.750 76.727 42.718 C 72.340 42.700,68.621 42.737,68.464 42.801 M29.017 43.589 C 28.733 43.913,28.509 44.344,28.519 44.547 C 28.537 44.885,28.545 44.888,28.617 44.583 C 28.660 44.400,28.918 43.969,29.189 43.625 C 29.813 42.834,29.701 42.811,29.017 43.589 M67.441 43.409 C 67.198 43.633,67.000 43.873,67.000 43.940 C 67.000 44.007,67.225 43.847,67.500 43.583 C 67.775 43.320,68.000 43.081,68.000 43.052 C 68.000 42.932,67.857 43.023,67.441 43.409 M28.409 51.333 C 28.409 54.771,28.431 56.177,28.458 54.458 C 28.485 52.740,28.485 49.927,28.458 48.208 C 28.431 46.490,28.409 47.896,28.409 51.333 M66.705 51.333 C 66.683 54.404,66.622 57.442,66.571 58.083 C 66.502 58.951,66.525 59.178,66.658 58.970 C 66.780 58.779,66.823 56.628,66.792 52.220 L 66.746 45.750 66.705 51.333 M28.503 60.294 C 28.501 60.410,28.763 60.785,29.085 61.127 C 29.407 61.470,29.624 61.619,29.567 61.458 C 29.511 61.298,29.405 61.167,29.332 61.167 C 29.259 61.167,29.043 60.923,28.853 60.625 C 28.662 60.327,28.504 60.178,28.503 60.294 M66.834 60.345 C 66.833 60.748,67.703 61.629,68.381 61.912 C 69.029 62.183,81.180 62.300,83.500 62.057 C 84.580 61.944,86.000 60.959,86.000 60.323 C 86.000 60.195,85.817 60.358,85.594 60.687 C 84.792 61.866,84.947 61.848,76.107 61.796 C 67.298 61.745,67.912 61.828,67.143 60.583 C 66.963 60.292,66.834 60.192,66.834 60.345 M46.699 61.375 L 46.324 61.750 38.087 61.750 C 32.596 61.750,29.906 61.806,30.017 61.917 C 30.123 62.023,33.028 62.083,38.050 62.083 C 46.444 62.083,46.478 62.080,47.158 61.261 C 47.490 60.860,47.123 60.952,46.699 61.375 M30.083 66.748 C 29.508 67.018,29.184 67.279,28.840 67.750 C 28.706 67.933,28.841 67.859,29.140 67.585 C 29.440 67.311,30.000 66.959,30.384 66.803 C 30.769 66.646,30.971 66.517,30.833 66.516 C 30.696 66.514,30.358 66.619,30.083 66.748 M46.000 66.844 C 46.437 67.037,46.916 67.418,47.149 67.758 C 47.369 68.078,47.585 68.304,47.631 68.258 C 47.932 67.957,46.586 66.780,45.750 66.613 C 45.378 66.539,45.443 66.598,46.000 66.844 M67.676 67.101 C 67.392 67.340,67.077 67.697,66.976 67.893 C 66.865 68.110,67.080 67.979,67.522 67.562 C 67.922 67.183,68.362 66.833,68.500 66.783 C 68.704 66.710,68.699 66.691,68.471 66.680 C 68.318 66.673,67.960 66.862,67.676 67.101 M84.417 66.929 C 85.058 67.262,85.665 67.826,85.841 68.250 C 85.941 68.492,85.982 68.511,85.989 68.319 C 86.007 67.888,84.770 66.667,84.317 66.668 C 83.936 66.669,83.941 66.682,84.417 66.929 M47.736 71.667 C 47.736 73.362,47.761 74.056,47.791 73.208 C 47.821 72.360,47.821 70.973,47.791 70.125 C 47.761 69.277,47.736 69.971,47.736 71.667 M66.685 69.917 C 66.655 70.008,66.612 71.321,66.590 72.833 C 66.563 74.647,66.599 75.399,66.696 75.042 C 66.827 74.557,66.817 69.514,66.685 69.917 M28.398 73.333 C 28.398 74.479,28.424 74.948,28.457 74.375 C 28.489 73.802,28.489 72.865,28.457 72.292 C 28.424 71.719,28.398 72.188,28.398 73.333 M28.545 76.833 C 28.545 77.246,28.578 77.415,28.618 77.208 C 28.657 77.002,28.657 76.665,28.618 76.458 C 28.578 76.252,28.545 76.421,28.545 76.833 M85.767 77.143 C 85.700 77.725,85.682 78.238,85.726 78.282 C 85.837 78.392,86.053 76.575,85.961 76.303 C 85.921 76.182,85.833 76.560,85.767 77.143 M48.170 76.417 C 48.167 76.621,48.794 77.667,48.918 77.667 C 48.968 77.667,48.897 77.460,48.760 77.208 C 48.387 76.519,48.172 76.231,48.170 76.417 M65.872 77.002 C 65.676 77.368,65.574 77.667,65.644 77.667 C 65.787 77.667,66.382 76.493,66.287 76.398 C 66.254 76.365,66.067 76.637,65.872 77.002 M64.906 78.350 C 64.637 78.634,64.042 79.084,63.583 79.349 C 63.125 79.613,62.870 79.831,63.017 79.832 C 63.163 79.833,63.576 79.618,63.933 79.355 C 64.575 78.882,65.641 77.833,65.479 77.833 C 65.433 77.833,65.175 78.066,64.906 78.350 M49.667 78.567 C 50.141 79.106,51.223 79.835,51.538 79.830 C 51.655 79.827,51.508 79.706,51.212 79.561 C 50.917 79.415,50.499 79.135,50.285 78.939 C 49.548 78.265,49.235 78.076,49.667 78.567 M29.008 79.667 C 29.006 79.804,29.118 80.254,29.256 80.667 L 29.506 81.417 29.414 80.683 C 29.318 79.927,29.013 79.162,29.008 79.667 M85.288 79.767 C 85.221 79.834,85.171 80.083,85.177 80.319 L 85.188 80.750 85.349 80.348 C 85.522 79.914,85.486 79.569,85.288 79.767 M61.500 80.250 C 61.179 80.374,61.029 80.477,61.167 80.480 C 61.304 80.483,61.642 80.382,61.917 80.256 C 62.560 79.961,62.261 79.957,61.500 80.250 M54.311 80.752 C 55.062 81.084,59.316 81.080,60.167 80.746 L 60.750 80.517 60.000 80.633 C 59.012 80.785,55.451 80.781,54.500 80.626 L 53.750 80.504 54.311 80.752 M29.500 81.716 C 29.500 81.929,30.201 83.687,30.262 83.627 C 30.297 83.592,30.171 83.155,29.981 82.657 C 29.651 81.787,29.500 81.491,29.500 81.716 M84.590 82.423 C 84.429 82.843,84.335 83.224,84.380 83.269 C 84.426 83.314,84.583 82.997,84.731 82.564 C 84.878 82.131,84.973 81.750,84.940 81.718 C 84.908 81.686,84.750 82.003,84.590 82.423 M83.784 84.451 C 83.535 84.966,83.368 85.424,83.413 85.469 C 83.458 85.514,83.691 85.122,83.931 84.598 C 84.499 83.358,84.374 83.232,83.784 84.451 M30.333 83.934 C 30.333 84.168,31.993 87.381,32.253 87.650 C 32.377 87.778,32.024 86.991,31.468 85.900 C 30.398 83.800,30.333 83.688,30.333 83.934 M82.046 87.715 C 80.643 90.038,77.862 92.937,75.175 94.875 C 73.537 96.057,73.211 96.396,74.634 95.439 C 76.665 94.072,80.176 90.873,80.723 89.892 C 80.818 89.722,80.978 89.499,81.080 89.397 C 81.408 89.067,82.715 86.992,82.641 86.919 C 82.602 86.879,82.334 87.238,82.046 87.715 M32.778 88.475 C 32.946 88.782,33.333 89.307,33.638 89.641 L 34.192 90.250 33.676 89.500 C 33.391 89.087,33.004 88.563,32.816 88.333 L 32.472 87.917 32.778 88.475 M34.667 90.909 C 35.640 91.994,37.446 93.677,38.203 94.203 C 38.595 94.476,38.729 94.538,38.500 94.340 C 38.271 94.143,37.892 93.817,37.659 93.616 C 37.426 93.415,36.526 92.577,35.659 91.754 C 34.792 90.931,34.346 90.551,34.667 90.909 M39.005 94.784 C 39.011 94.917,40.500 95.881,40.500 95.752 C 40.500 95.714,40.162 95.450,39.750 95.167 C 39.337 94.883,39.002 94.711,39.005 94.784 M41.760 96.578 C 42.183 96.898,42.431 96.901,42.167 96.583 C 42.053 96.446,41.842 96.333,41.698 96.333 C 41.488 96.333,41.501 96.382,41.760 96.578 M71.958 96.797 C 71.523 97.031,71.197 97.252,71.234 97.289 C 71.327 97.382,72.620 96.711,72.749 96.502 C 72.876 96.297,72.922 96.279,71.958 96.797 M43.167 97.257 C 43.787 97.623,44.709 98.013,44.781 97.941 C 44.851 97.871,43.064 96.996,42.870 97.006 C 42.804 97.009,42.938 97.122,43.167 97.257 M70.000 97.750 C 69.771 97.881,69.658 97.988,69.750 97.988 C 69.842 97.988,70.104 97.881,70.333 97.750 C 70.563 97.619,70.675 97.512,70.583 97.512 C 70.492 97.512,70.229 97.619,70.000 97.750 M45.866 98.408 C 46.845 98.815,47.833 99.086,47.833 98.948 C 47.833 98.859,45.295 97.996,45.065 98.007 C 44.983 98.011,45.344 98.192,45.866 98.408 M67.691 98.527 C 67.109 98.707,66.673 98.895,66.723 98.945 C 66.816 99.038,69.000 98.359,69.000 98.236 C 69.000 98.133,68.854 98.166,67.691 98.527 M48.048 99.103 C 48.189 99.245,50.004 99.664,50.417 99.651 C 50.600 99.645,50.188 99.497,49.500 99.323 C 48.158 98.982,47.885 98.941,48.048 99.103 M65.083 99.333 L 64.750 99.477 65.083 99.477 C 65.267 99.477,65.567 99.412,65.750 99.333 L 66.083 99.190 65.750 99.190 C 65.567 99.190,65.267 99.255,65.083 99.333 M51.333 99.842 C 51.654 99.922,52.517 100.026,53.250 100.073 C 54.207 100.134,54.395 100.118,53.917 100.017 C 52.955 99.815,50.580 99.653,51.333 99.842 M60.833 99.940 C 60.696 99.978,59.983 100.077,59.250 100.160 C 57.956 100.307,57.968 100.309,59.667 100.223 C 60.629 100.174,61.717 100.075,62.083 100.003 L 62.750 99.872 61.917 99.872 C 61.458 99.872,60.971 99.903,60.833 99.940 " stroke="none" fill="#6ea4e4" fill-rule="evenodd"></path><path id="path3" d="M34.303 42.958 C 36.441 42.985,39.891 42.985,41.970 42.958 C 44.049 42.932,42.300 42.910,38.083 42.910 C 33.867 42.910,32.166 42.932,34.303 42.958 M72.625 42.958 C 74.756 42.985,78.244 42.985,80.375 42.958 C 82.506 42.932,80.762 42.910,76.500 42.910 C 72.237 42.910,70.494 42.932,72.625 42.958 M29.179 43.621 C 28.897 43.963,28.667 44.319,28.668 44.413 C 28.668 44.507,28.810 44.369,28.983 44.107 C 29.156 43.845,29.512 43.489,29.774 43.316 C 30.102 43.100,30.163 43.002,29.970 43.001 C 29.817 43.000,29.460 43.280,29.179 43.621 M46.562 43.368 C 47.491 44.060,47.500 44.145,47.500 52.470 L 47.500 60.117 47.120 60.681 C 46.446 61.682,46.630 61.662,38.094 61.664 C 30.324 61.667,30.267 61.664,29.740 61.303 C 28.717 60.602,28.758 60.931,28.663 52.500 L 28.577 44.750 28.540 52.417 C 28.499 60.803,28.443 60.266,29.468 61.345 L 29.852 61.750 38.058 61.750 L 46.263 61.750 46.783 61.333 C 47.068 61.104,47.384 60.744,47.484 60.534 C 47.743 59.991,47.738 44.784,47.480 44.281 C 47.222 43.780,46.476 42.999,46.260 43.005 C 46.163 43.008,46.299 43.171,46.562 43.368 M67.542 43.542 C 67.230 43.864,66.949 44.386,66.847 44.833 C 66.631 45.776,66.630 45.833,66.833 45.833 C 66.925 45.833,67.000 45.567,67.000 45.242 C 67.000 44.502,67.353 43.804,67.954 43.356 C 68.208 43.166,68.338 43.008,68.241 43.005 C 68.144 43.002,67.830 43.244,67.542 43.542 M85.130 43.748 L 85.833 44.547 85.833 52.260 C 85.833 60.735,85.853 60.565,84.810 61.266 C 84.558 61.435,84.378 61.601,84.411 61.634 C 84.545 61.768,85.350 61.096,85.664 60.588 C 85.988 60.063,86.000 59.776,86.000 52.323 L 86.000 44.601 85.554 43.957 C 85.308 43.603,84.954 43.231,84.767 43.131 C 84.571 43.026,84.725 43.288,85.130 43.748 M66.755 59.411 C 66.964 60.699,67.709 61.605,68.675 61.745 L 69.250 61.828 68.626 61.647 C 67.858 61.426,67.216 60.693,67.069 59.870 C 67.007 59.529,66.888 59.137,66.802 59.000 C 66.700 58.835,66.684 58.975,66.755 59.411 M73.053 61.792 C 75.145 61.818,78.520 61.818,80.553 61.791 C 82.586 61.765,80.875 61.743,76.750 61.743 C 72.625 61.743,70.961 61.765,73.053 61.792 M30.583 66.760 C 30.308 66.895,30.221 66.966,30.389 66.919 C 30.557 66.872,34.082 66.832,38.222 66.831 C 43.144 66.829,45.663 66.772,45.500 66.667 C 45.056 66.380,31.183 66.466,30.583 66.760 M68.724 66.703 C 67.519 67.091,66.120 69.476,66.838 69.919 C 66.935 69.979,67.000 69.689,67.000 69.198 C 67.000 68.480,67.082 68.284,67.647 67.646 L 68.295 66.917 76.189 66.833 C 80.531 66.787,83.830 66.694,83.521 66.625 C 82.663 66.434,69.341 66.505,68.724 66.703 M29.199 67.550 C 28.906 67.852,28.669 68.208,28.672 68.341 C 28.675 68.501,28.739 68.470,28.861 68.250 C 28.962 68.067,29.279 67.711,29.564 67.459 C 29.850 67.207,30.004 67.001,29.908 67.000 C 29.811 67.000,29.492 67.247,29.199 67.550 M46.806 67.578 C 47.441 68.301,47.475 68.519,47.553 72.417 C 47.614 75.476,47.923 77.167,48.421 77.167 C 48.475 77.167,48.475 77.094,48.420 77.005 C 47.941 76.230,47.674 74.253,47.671 71.443 C 47.666 68.318,47.438 67.452,46.523 67.086 C 46.397 67.037,46.525 67.258,46.806 67.578 M85.105 67.500 C 85.295 67.729,85.518 68.029,85.600 68.167 C 85.683 68.304,85.792 70.179,85.844 72.333 L 85.937 76.250 85.927 72.211 L 85.917 68.172 85.338 67.628 C 85.005 67.314,84.906 67.260,85.105 67.500 M28.592 73.083 C 28.636 77.036,28.854 79.409,29.205 79.760 C 29.341 79.896,29.160 78.330,28.963 77.667 C 28.868 77.346,28.734 75.208,28.667 72.917 L 28.544 68.750 28.592 73.083 M66.686 75.083 C 66.669 75.267,66.520 75.810,66.354 76.292 C 66.187 76.773,66.080 77.167,66.115 77.167 C 66.295 77.167,66.840 75.543,66.783 75.176 C 66.734 74.864,66.708 74.839,66.686 75.083 M85.511 77.702 C 85.403 78.462,85.275 79.271,85.228 79.500 C 85.163 79.821,85.189 79.872,85.341 79.722 C 85.530 79.537,85.924 76.535,85.778 76.390 C 85.740 76.352,85.620 76.942,85.511 77.702 M48.758 77.749 C 49.616 79.162,52.587 80.885,54.047 80.816 C 54.253 80.806,54.047 80.692,53.583 80.558 C 51.373 79.919,50.595 79.491,49.436 78.277 C 48.866 77.681,48.582 77.459,48.758 77.749 M65.083 78.291 C 64.808 78.621,64.291 79.103,63.933 79.362 C 63.175 79.912,63.282 80.005,64.058 79.472 C 64.620 79.085,65.658 77.999,65.663 77.792 C 65.668 77.603,65.625 77.641,65.083 78.291 M62.333 80.083 C 61.965 80.294,61.955 80.322,62.250 80.322 C 62.433 80.322,62.729 80.213,62.907 80.078 C 63.336 79.753,62.904 79.757,62.333 80.083 M85.000 80.413 C 85.000 80.778,84.770 81.525,84.331 82.583 C 84.132 83.064,83.963 84.023,84.155 83.583 C 84.892 81.895,85.395 80.000,85.106 80.000 C 85.048 80.000,85.000 80.186,85.000 80.413 M60.860 80.531 C 60.462 80.620,60.176 80.731,60.224 80.779 C 60.354 80.909,61.650 80.661,61.759 80.485 C 61.867 80.311,61.836 80.313,60.860 80.531 M29.509 81.180 C 29.493 81.664,31.298 85.919,31.326 85.462 C 31.330 85.395,31.153 84.945,30.932 84.462 C 30.711 83.979,30.418 83.283,30.280 82.917 C 29.628 81.185,29.517 80.935,29.509 81.180 M56.042 81.124 C 56.660 81.156,57.673 81.156,58.292 81.124 C 58.910 81.092,58.404 81.065,57.167 81.065 C 55.929 81.065,55.423 81.092,56.042 81.124 M83.596 84.526 C 83.451 84.815,83.333 85.094,83.333 85.146 C 83.333 85.291,83.764 84.622,83.884 84.292 C 84.057 83.815,83.878 83.960,83.596 84.526 M82.916 85.952 C 82.754 86.299,82.182 87.244,81.645 88.051 C 81.108 88.858,80.739 89.475,80.824 89.422 C 80.909 89.370,81.336 88.785,81.773 88.122 C 82.210 87.459,82.616 86.879,82.676 86.833 C 82.863 86.689,83.381 85.492,83.294 85.405 C 83.248 85.359,83.078 85.605,82.916 85.952 M31.667 86.258 C 31.667 87.049,36.236 92.833,36.861 92.833 C 36.927 92.833,36.574 92.449,36.077 91.979 C 34.626 90.607,32.899 88.334,32.071 86.708 C 31.815 86.204,31.667 86.040,31.667 86.258 M78.833 91.471 C 77.871 92.457,76.746 93.547,76.333 93.893 C 75.914 94.246,75.830 94.353,76.143 94.137 C 77.201 93.405,81.002 89.634,80.641 89.673 C 80.610 89.676,79.796 90.486,78.833 91.471 M37.333 93.281 C 37.333 93.436,38.890 94.610,40.710 95.828 C 41.147 96.121,41.597 96.322,41.710 96.276 C 41.831 96.228,41.796 96.188,41.625 96.180 C 41.465 96.173,41.333 96.092,41.333 96.000 C 41.333 95.908,41.266 95.833,41.183 95.833 C 41.101 95.833,40.595 95.531,40.058 95.160 C 39.522 94.790,38.896 94.361,38.667 94.206 C 38.438 94.051,38.212 93.885,38.167 93.837 C 37.808 93.462,37.333 93.145,37.333 93.281 M74.959 94.807 C 74.707 94.959,74.500 95.145,74.500 95.220 C 74.500 95.295,74.725 95.196,75.000 95.000 C 75.741 94.473,75.714 94.351,74.959 94.807 M73.827 95.572 C 73.493 95.898,71.497 96.922,70.083 97.493 C 67.613 98.490,67.549 98.519,68.083 98.410 C 69.657 98.090,75.171 95.333,74.238 95.333 C 74.146 95.333,73.962 95.441,73.827 95.572 M42.100 96.527 C 42.209 96.703,44.020 97.535,44.106 97.449 C 44.137 97.419,43.676 97.164,43.082 96.882 C 42.489 96.600,42.047 96.441,42.100 96.527 M44.574 97.752 C 44.751 97.889,44.995 98.000,45.115 98.000 C 45.487 98.000,45.357 97.874,44.792 97.685 C 44.296 97.520,44.278 97.526,44.574 97.752 M47.460 98.734 C 48.053 99.008,49.167 99.257,49.167 99.115 C 49.167 99.067,48.848 98.951,48.458 98.859 C 48.069 98.767,47.563 98.644,47.333 98.587 C 47.042 98.513,47.081 98.558,47.460 98.734 M66.969 98.586 C 66.729 98.826,64.256 99.367,62.083 99.655 L 61.083 99.788 61.867 99.811 C 62.653 99.833,63.522 99.694,65.457 99.233 C 66.598 98.961,67.737 98.517,67.319 98.507 C 67.174 98.503,67.017 98.539,66.969 98.586 M50.833 99.583 C 51.429 99.712,52.254 99.810,52.667 99.801 L 53.417 99.784 52.500 99.654 C 51.996 99.582,51.171 99.483,50.667 99.435 L 49.750 99.348 50.833 99.583 M54.572 100.135 C 55.279 100.288,56.184 100.321,57.583 100.245 C 61.234 100.046,61.130 99.917,57.322 99.917 C 53.815 99.917,53.629 99.931,54.572 100.135 " stroke="none" fill="#84bcfc" fill-rule="evenodd"></path><path id="path4" d="M67.250 41.833 C 67.193 41.925,67.301 42.000,67.490 42.000 C 67.679 42.000,67.833 41.925,67.833 41.833 C 67.833 41.742,67.725 41.667,67.593 41.667 C 67.461 41.667,67.307 41.742,67.250 41.833 M30.333 42.473 C 29.930 42.528,29.077 43.089,28.461 43.706 C 28.180 43.987,28.161 44.475,28.170 51.055 C 28.176 54.932,28.140 58.212,28.092 58.344 C 28.043 58.475,28.097 58.893,28.210 59.271 C 28.381 59.841,28.417 58.622,28.417 52.159 C 28.417 41.603,27.228 42.750,38.170 42.750 L 46.315 42.750 46.921 43.333 C 47.255 43.654,47.628 44.142,47.750 44.417 L 47.973 44.917 47.986 44.391 C 47.998 43.956,47.855 43.743,47.168 43.168 L 46.337 42.472 38.543 42.444 C 34.257 42.429,30.563 42.442,30.333 42.473 M67.633 42.803 C 67.188 43.073,67.118 43.177,66.607 44.345 C 66.191 45.294,66.206 58.965,66.624 60.486 C 66.879 61.413,66.984 61.578,67.414 61.721 C 67.687 61.812,68.011 61.987,68.134 62.110 C 68.393 62.369,68.362 62.368,76.833 62.340 C 86.197 62.310,85.954 62.390,86.188 59.266 C 86.667 52.875,86.305 43.521,85.564 43.117 C 85.391 43.023,85.190 42.846,85.117 42.723 C 84.895 42.353,68.251 42.429,67.633 42.803 M84.650 42.877 C 84.871 42.991,85.269 43.354,85.536 43.685 L 86.021 44.287 86.006 52.346 C 85.990 61.240,86.051 60.729,84.892 61.614 L 84.276 62.083 76.763 62.138 C 65.663 62.219,66.603 63.154,66.656 52.083 C 66.696 43.651,66.691 43.686,68.020 43.028 C 68.904 42.591,83.829 42.455,84.650 42.877 M47.908 52.500 C 47.908 55.571,47.931 56.827,47.958 55.292 C 47.986 53.756,47.986 51.244,47.958 49.708 C 47.931 48.173,47.908 49.429,47.908 52.500 M27.500 58.323 C 27.500 58.512,27.575 58.667,27.667 58.667 C 27.758 58.667,27.833 58.559,27.833 58.427 C 27.833 58.294,27.758 58.140,27.667 58.083 C 27.575 58.027,27.500 58.135,27.500 58.323 M27.000 60.333 C 27.000 60.731,27.256 60.775,27.399 60.403 C 27.542 60.031,27.531 60.000,27.250 60.000 C 27.111 60.000,27.000 60.148,27.000 60.333 M47.413 60.794 C 46.703 62.103,46.874 62.078,38.275 62.125 C 29.788 62.171,29.999 62.195,29.001 61.059 C 28.586 60.586,28.500 60.545,28.500 60.815 C 28.500 61.164,29.227 61.833,29.606 61.833 C 29.731 61.833,29.833 61.900,29.833 61.982 C 29.833 62.315,30.734 62.355,38.050 62.340 C 46.871 62.322,47.035 62.298,47.566 60.946 C 47.904 60.086,47.834 60.017,47.413 60.794 M29.751 66.536 C 29.177 66.869,28.693 67.398,28.488 67.917 C 28.254 68.507,28.101 74.996,28.291 76.235 C 28.366 76.723,28.419 75.308,28.422 72.735 C 28.429 67.907,28.451 67.799,29.628 66.992 L 30.225 66.583 37.571 66.533 C 41.611 66.505,45.254 66.531,45.666 66.591 C 46.494 66.711,47.577 67.652,47.715 68.369 C 47.771 68.663,47.793 68.630,47.811 68.228 C 47.828 67.822,47.680 67.553,47.147 67.020 L 46.461 66.333 38.272 66.338 C 32.385 66.342,29.990 66.398,29.751 66.536 M68.078 66.510 C 67.346 66.723,66.865 67.242,66.736 67.958 C 66.674 68.302,66.553 68.672,66.467 68.780 C 66.300 68.992,66.237 75.459,66.401 75.623 C 66.509 75.732,66.507 75.788,66.580 71.833 C 66.683 66.291,66.304 66.498,76.332 66.504 C 84.424 66.508,84.679 66.535,85.456 67.449 L 85.995 68.083 85.998 72.617 C 85.999 75.252,85.924 77.503,85.819 77.992 C 85.584 79.089,85.724 79.468,86.007 78.500 C 86.190 77.875,86.358 72.587,86.328 68.432 C 86.325 68.083,86.105 67.721,85.541 67.140 L 84.759 66.333 76.671 66.348 C 72.223 66.357,68.356 66.430,68.078 66.510 M86.833 69.583 C 86.833 69.813,86.908 70.000,87.000 70.000 C 87.092 70.000,87.167 69.813,87.167 69.583 C 87.167 69.354,87.092 69.167,87.000 69.167 C 86.908 69.167,86.833 69.354,86.833 69.583 M47.850 72.681 C 47.859 73.910,47.925 75.104,47.997 75.333 C 48.069 75.563,48.089 74.587,48.041 73.167 C 47.933 69.960,47.828 69.693,47.850 72.681 M48.169 75.964 C 48.168 76.082,48.391 76.570,48.665 77.048 C 49.238 78.047,49.311 78.016,48.843 76.972 C 48.436 76.063,48.173 75.669,48.169 75.964 M65.831 76.607 C 65.168 77.928,64.857 78.261,63.833 78.750 C 63.282 79.013,62.824 79.351,62.778 79.527 C 62.661 79.973,64.094 79.178,64.885 78.358 C 65.536 77.682,66.387 76.244,66.296 75.972 C 66.264 75.876,66.055 76.161,65.831 76.607 M64.333 77.010 C 64.333 77.199,64.408 77.307,64.500 77.250 C 64.592 77.193,64.667 77.039,64.667 76.907 C 64.667 76.775,64.592 76.667,64.500 76.667 C 64.408 76.667,64.333 76.821,64.333 77.010 M28.520 77.625 C 28.479 78.054,29.028 80.860,29.253 81.378 C 29.538 82.035,29.565 81.817,29.308 80.917 C 29.204 80.550,28.988 79.612,28.829 78.833 C 28.669 78.054,28.530 77.510,28.520 77.625 M49.975 78.643 C 51.782 80.311,55.556 81.141,59.261 80.686 C 60.878 80.488,62.982 79.868,62.117 79.846 C 61.860 79.839,61.410 79.964,61.117 80.124 C 59.150 81.197,51.550 80.120,50.392 78.605 C 50.222 78.382,49.896 78.150,49.667 78.088 C 49.314 77.992,49.362 78.078,49.975 78.643 M85.350 80.344 C 85.067 81.652,84.104 84.379,83.659 85.133 C 83.259 85.812,83.254 85.887,83.626 85.689 C 83.786 85.603,84.022 85.169,84.150 84.724 C 84.278 84.280,84.515 83.651,84.678 83.326 C 84.840 83.000,85.024 82.457,85.088 82.117 C 85.172 81.670,85.289 81.500,85.511 81.500 C 85.872 81.500,86.143 80.459,85.870 80.123 C 85.778 80.010,85.676 79.771,85.643 79.594 C 85.610 79.416,85.478 79.753,85.350 80.344 M29.507 82.167 C 29.505 82.455,29.841 83.429,30.111 83.917 C 30.213 84.100,30.295 84.443,30.294 84.679 C 30.293 84.915,30.555 85.477,30.876 85.929 C 31.197 86.381,31.621 87.069,31.817 87.458 C 32.013 87.848,32.247 88.167,32.337 88.167 C 32.427 88.167,32.500 88.246,32.500 88.342 C 32.500 88.914,36.445 93.500,36.937 93.500 C 37.053 93.500,37.246 93.633,37.366 93.795 C 37.579 94.085,38.595 94.888,39.251 95.285 C 40.839 96.248,41.889 96.833,41.941 96.781 C 41.975 96.747,41.346 96.320,40.543 95.832 C 39.740 95.344,39.046 94.899,39.000 94.842 C 38.954 94.786,38.595 94.507,38.203 94.223 C 34.944 91.867,31.920 87.838,30.153 83.500 C 29.799 82.629,29.508 82.029,29.507 82.167 M82.098 87.919 C 81.662 88.608,81.213 89.264,81.100 89.377 C 80.987 89.491,80.818 89.722,80.723 89.892 C 80.013 91.165,75.024 95.476,73.564 96.076 C 73.376 96.153,73.329 96.235,73.446 96.279 C 73.554 96.320,73.960 96.142,74.348 95.885 C 74.736 95.627,75.375 95.240,75.768 95.024 C 76.826 94.442,81.231 90.012,81.713 89.046 C 81.931 88.608,82.316 87.894,82.569 87.458 C 83.281 86.232,82.982 86.524,82.098 87.919 M32.117 91.890 C 32.000 92.195,32.253 92.569,32.481 92.428 C 32.747 92.264,32.710 91.667,32.434 91.667 C 32.307 91.667,32.164 91.767,32.117 91.890 M72.740 96.517 C 72.492 96.917,69.223 98.245,66.000 99.255 C 64.489 99.728,61.179 100.181,58.417 100.293 L 55.583 100.408 57.167 100.531 C 58.059 100.600,59.145 100.584,59.656 100.493 C 60.154 100.405,61.068 100.333,61.687 100.333 C 62.307 100.333,62.856 100.264,62.909 100.180 C 62.961 100.095,63.509 99.973,64.127 99.909 C 64.745 99.844,65.514 99.658,65.837 99.495 C 66.160 99.332,66.798 99.146,67.254 99.081 C 68.052 98.969,69.145 98.571,70.917 97.750 C 71.375 97.538,71.966 97.301,72.231 97.224 C 72.706 97.085,73.380 96.333,73.030 96.333 C 72.933 96.333,72.802 96.416,72.740 96.517 M79.833 96.583 C 79.833 96.721,79.908 96.833,80.000 96.833 C 80.092 96.833,80.167 96.721,80.167 96.583 C 80.167 96.446,80.092 96.333,80.000 96.333 C 79.908 96.333,79.833 96.446,79.833 96.583 M42.919 97.384 C 43.706 97.906,45.058 98.441,47.500 99.195 C 48.096 99.379,48.714 99.598,48.873 99.682 C 49.032 99.765,49.385 99.833,49.656 99.833 C 49.928 99.833,50.582 99.946,51.110 100.083 C 51.649 100.224,52.657 100.321,53.410 100.304 C 54.197 100.287,54.440 100.251,54.000 100.216 C 50.541 99.944,45.361 98.521,43.083 97.219 C 42.082 96.646,41.972 96.756,42.919 97.384 " stroke="none" fill="#3d87e8" fill-rule="evenodd"></path></g></svg>